PathFileType	4	(X/Y/Z)	C:/Users/CLatella/Desktop/xsens/test 26Settembre2016/Meri-002.trc	
DataRate	CameraRate	NumFrames	NumMarkers	Units	OrigDataRate	OrigDataStartFrame	OrigNumFrames	
240.00	240.00	4	64	mm	240.00	1	1060	
Frame#	Time	pHipOrigin			pRightASI			pLeftASI			pRightCSI			pLeftCSI			pRightIschialTub			pLeftIschialTub			pSacrum			pL5SpinalProcess			pL3SpinalProcess			pT12SpinalProcess			pPX			pIJ			pT4SpinalProcess			pT8SpinalProcess			pC7SpinalProcess			pTopOfHead			pRightAuricularis			pLeftAuricularis			pBackOfHead			pRightAcromion			pLeftAcromion			pRightArmLatEpicondyle			pRightArmMedEpicondyle			pLeftArmLatEpicondyle			pLeftArmMedEpicondyle			pRightUlnarStyloid			pRightRadialStyloid			pRightOlecranon			pLeftUlnarStyloid			pLeftRadialStyloid			pLeftOlecranon			pRightTopOfHand			pRightPinky			pRightBallHand			pLeftTopOfHand			pLeftPinky			pLeftBallHand			pRightGreaterTrochanter			pRightKneeLatEpicondyle			pRightKneeMedEpicondyle			pRightPatella			pLeftGreaterTrochanter			pLeftKneeLatEpicondyle			pLeftKneeMedEpicondyle			pLeftPatella			pRightLatMalleolus			pRightMedMalleolus			pRightTibialTub			pLeftLatMalleolus			pLeftMedMalleolus			pLeftTibialTub			pRightHeelFoot			pRightFirstMetatarsal			pRightFifthMetatarsal			pRightPivotFoot			pRightHeelCenter			pRightToe			pLeftHeelFoot			pLeftFirstMetatarsal			pLeftFifthMetatarsal			pLeftPivotFoot			pLeftHeelCenter			pLeftToe			
		X1	Y1	Z1	X2	Y2	Z2	X3	Y3	Z3	X4	Y4	Z4	X5	Y5	Z5	X6	Y6	Z6	X7	Y7	Z7	X8	Y8	Z8	X9	Y9	Z9	X10	Y10	Z10	X11	Y11	Z11	X12	Y12	Z12	X13	Y13	Z13	X14	Y14	Z14	X15	Y15	Z15	X16	Y16	Z16	X17	Y17	Z17	X18	Y18	Z18	X19	Y19	Z19	X20	Y20	Z20	X21	Y21	Z21	X22	Y22	Z22	X23	Y23	Z23	X24	Y24	Z24	X25	Y25	Z25	X26	Y26	Z26	X27	Y27	Z27	X28	Y28	Z28	X29	Y29	Z29	X30	Y30	Z30	X31	Y31	Z31	X32	Y32	Z32	X33	Y33	Z33	X34	Y34	Z34	X35	Y35	Z35	X36	Y36	Z36	X37	Y37	Z37	X38	Y38	Z38	X39	Y39	Z39	X40	Y40	Z40	X41	Y41	Z41	X42	Y42	Z42	X43	Y43	Z43	X44	Y44	Z44	X45	Y45	Z45	X46	Y46	Z46	X47	Y47	Z47	X48	Y48	Z48	X49	Y49	Z49	X50	Y50	Z50	X51	Y51	Z51	X52	Y52	Z52	X53	Y53	Z53	X54	Y54	Z54	X55	Y55	Z55	X56	Y56	Z56	X57	Y57	Z57	X58	Y58	Z58	X59	Y59	Z59	X60	Y60	Z60	X61	Y61	Z61	X62	Y62	Z62	X63	Y63	Z63	X64	Y64	Z64	

1	0.000	171.18676	4.29465	926.49593	237.75385	-109.96303	1007.14547	213.93352	128.44001	1008.74348	192.46027	-94.03287	1074.26186	172.78477	102.97174	1075.56025	129.73839	-49.18873	872.91267	119.90065	49.28860	873.61180	101.27385	-2.74658	941.32745	128.44001	0.44944	1015.93452	117.90314	-0.39950	1119.35569	111.01172	-0.84894	1210.74186	245.39433	1.29838	1303.57622	237.40428	0.64919	1414.03863	104.56974	-1.54807	1383.22701	107.06663	-1.14857	1302.12803	103.07161	-0.79900	1435.16231	273.95875	-4.79403	1627.22308	201.74870	-67.56584	1560.60606	210.93725	62.52212	1555.91191	161.09933	1.49813	1582.07931	146.01812	-175.88092	1397.15965	132.23528	174.53260	1396.95990	288.24096	-125.89318	1113.71272	277.90383	-66.21752	1120.95370	269.76397	147.86581	1105.37311	260.17592	87.69077	1107.67025	372.33621	-78.15265	905.42218	412.73588	-66.56708	926.64574	262.92250	-104.27012	1107.07100	341.37477	109.16402	889.19239	379.62712	87.94046	906.72056	245.89371	130.73715	1098.33188	532.43678	-85.69326	817.23203	450.83842	-82.94668	828.86754	408.19154	-67.01652	881.20235	491.88729	182.07320	825.22208	412.38632	160.79970	830.41561	375.23260	114.10786	865.87144	192.70995	-143.27154	900.22865	176.92961	-134.63230	519.55283	163.59622	-62.22249	516.00724	210.38793	-88.48977	519.05345	112.70961	132.73466	903.32479	104.76950	123.74586	522.39928	158.00319	73.15887	516.75631	161.64865	126.59231	520.95109	140.57490	-158.25288	95.73075	142.92197	-95.63088	90.78691	234.10839	-99.87559	480.00209	82.04780	178.57756	101.92304	89.58841	116.65469	94.23262	193.40908	113.35880	480.25178	102.97174	-122.24772	-0.09988	250.48798	-113.05917	0.59925	239.90117	-178.92712	1.59801	264.02113	-148.11550	1.29838	142.02309	-128.48995	4.49440	339.92658	-160.30032	1.04869	44.79420	147.06681	5.49316	190.11319	120.10040	3.39577	187.56636	186.76736	4.04496	207.79117	153.25910	3.54558	84.39487	148.51500	9.28843	284.59550	156.20543	1.64795 
2	0.004	171.18676	4.29465	926.49593	237.75385	-109.91309	1007.14547	213.93352	128.44001	1008.74348	192.51020	-94.03287	1074.26186	172.78477	102.97174	1075.56025	129.73839	-49.18873	872.91267	119.90065	49.28860	873.61180	101.27385	-2.74658	941.32745	128.48995	0.44944	1015.93452	117.95307	-0.39950	1119.35569	111.06166	-0.84894	1210.74186	245.39433	1.29838	1303.57622	237.40428	0.64919	1414.03863	104.61968	-1.54807	1383.22701	107.11657	-1.14857	1302.12803	103.12155	-0.79900	1435.16231	274.00869	-4.79403	1627.22308	201.79863	-67.56584	1560.60606	210.98719	62.52212	1555.91191	161.14927	1.49813	1582.07931	146.06805	-175.88092	1397.15965	132.28522	174.53260	1396.95990	288.29090	-125.94312	1113.66279	277.90383	-66.21752	1120.95370	269.76397	147.86581	1105.37311	260.22585	87.69077	1107.67025	372.38614	-78.15265	905.42218	412.78582	-66.56708	926.64574	262.92250	-104.27012	1107.07100	341.42471	109.16402	889.19239	379.62712	87.99040	906.72056	245.94364	130.73715	1098.33188	532.43678	-85.69326	817.23203	450.83842	-82.94668	828.81760	408.19154	-67.01652	881.20235	491.88729	182.12314	825.22208	412.38632	160.79970	830.41561	375.23260	114.15780	865.87144	192.70995	-143.22160	900.22865	176.92961	-134.63230	519.55283	163.59622	-62.17256	516.00724	210.38793	-88.48977	519.05345	112.75954	132.78460	903.32479	104.76950	123.79580	522.39928	158.05312	73.15887	516.75631	161.64865	126.59231	520.95109	140.57490	-158.25288	95.73075	142.92197	-95.58094	90.78691	234.10839	-99.87559	480.00209	82.04780	178.57756	101.92304	89.58841	116.65469	94.23262	193.40908	113.35880	480.25178	102.92180	-122.29766	-0.09988	250.43805	-112.95929	0.59925	239.95111	-178.82725	1.59801	264.02113	-147.96569	1.29838	142.02309	-128.48995	4.49440	339.92658	-160.10057	1.04869	44.79420	147.01687	5.49316	190.11319	120.15034	3.39577	187.56636	186.81729	4.04496	207.79117	153.30903	3.54558	84.39487	148.51500	9.28843	284.59550	156.25536	1.64795 
3	0.008	171.18676	4.34459	926.49593	237.80378	-109.91309	1007.14547	213.98346	128.44001	1008.74348	192.51020	-93.98293	1074.26186	172.83471	103.02167	1075.56025	129.73839	-49.18873	872.91267	119.90065	49.28860	873.61180	101.32379	-2.69664	941.32745	128.48995	0.49938	1015.93452	117.95307	-0.39950	1119.35569	111.06166	-0.84894	1210.74186	245.44427	1.29838	1303.57622	237.45422	0.64919	1414.03863	104.66962	-1.54807	1383.22701	107.11657	-1.14857	1302.12803	103.17149	-0.79900	1435.16231	274.05862	-4.79403	1627.17314	201.84857	-67.56584	1560.60606	211.03713	62.52212	1555.91191	161.19920	1.49813	1582.07931	146.06805	-175.88092	1397.15965	132.33516	174.53260	1396.95990	288.29090	-125.94312	1113.66279	277.95377	-66.21752	1120.95370	269.81391	147.91575	1105.37311	260.22585	87.69077	1107.67025	372.38614	-78.15265	905.37224	412.78582	-66.56708	926.59580	262.97243	-104.27012	1107.07100	341.42471	109.16402	889.19239	379.67706	87.99040	906.67062	245.94364	130.78709	1098.33188	532.43678	-85.69326	817.18209	450.83842	-82.94668	828.81760	408.19154	-67.01652	881.20235	491.88729	182.12314	825.22208	412.43626	160.79970	830.41561	375.28254	114.15780	865.87144	192.70995	-143.22160	900.22865	176.92961	-134.58236	519.55283	163.59622	-62.17256	516.00724	210.38793	-88.48977	519.05345	112.75954	132.78460	903.32479	104.76950	123.79580	522.39928	158.05312	73.15887	516.75631	161.69858	126.59231	520.95109	140.57490	-158.25288	95.73075	142.92197	-95.58094	90.78691	234.10839	-99.87559	480.00209	82.04780	178.57756	101.92304	89.58841	116.65469	94.23262	193.45902	113.35880	480.25178	102.92180	-122.34760	-0.09988	250.43805	-112.90936	0.59925	239.95111	-178.77731	1.59801	264.02113	-147.91575	1.29838	142.02309	-128.44001	4.49440	339.97651	-160.00070	1.04869	44.79420	147.01687	5.49316	190.11319	120.15034	3.39577	187.56636	186.81729	4.04496	207.79117	153.30903	3.54558	84.39487	148.51500	9.28843	284.59550	156.30530	1.64795 
4	0.013	171.23670	4.34459	926.49593	237.80378	-109.91309	1007.14547	213.98346	128.44001	1008.74348	192.56014	-93.98293	1074.26186	172.83471	103.02167	1075.56025	129.78833	-49.13879	872.91267	119.90065	49.33854	873.61180	101.32379	-2.69664	941.32745	128.48995	0.49938	1015.93452	117.95307	-0.39950	1119.35569	111.11160	-0.84894	1210.74186	245.49420	1.29838	1303.57622	237.50416	0.64919	1414.03863	104.66962	-1.54807	1383.22701	107.16651	-1.14857	1302.12803	103.22142	-0.79900	1435.16231	274.10856	-4.79403	1627.17314	201.89851	-67.56584	1560.60606	211.08706	62.52212	1555.91191	161.24914	1.49813	1582.07931	146.11799	-175.88092	1397.15965	132.38510	174.53260	1396.95990	288.34083	-125.94312	1113.66279	277.95377	-66.26746	1120.95370	269.81391	147.86581	1105.37311	260.27579	87.69077	1107.67025	372.38614	-78.20259	905.37224	412.78582	-66.56708	926.59580	262.97243	-104.27012	1107.07100	341.42471	109.16402	889.19239	379.67706	87.99040	906.67062	245.99358	130.73715	1098.33188	532.43678	-85.69326	817.18209	450.88836	-82.94668	828.81760	408.24148	-67.01652	881.15241	491.88729	182.12314	825.17214	412.43626	160.79970	830.36567	375.28254	114.15780	865.87144	192.70995	-143.22160	900.22865	176.92961	-134.63230	519.55283	163.59622	-62.22249	516.00724	210.38793	-88.48977	519.05345	112.75954	132.78460	903.32479	104.76950	123.79580	522.39928	158.05312	73.15887	516.75631	161.69858	126.59231	520.95109	140.57490	-158.25288	95.73075	142.92197	-95.63088	90.78691	234.10839	-99.92553	480.00209	82.09774	178.57756	101.92304	89.63834	116.65469	94.23262	193.45902	113.35880	480.25178	102.92180	-122.34760	-0.09988	250.43805	-113.00923	0.59925	239.90117	-178.87718	1.59801	264.02113	-148.01563	1.29838	141.97315	-128.48995	4.49440	339.92658	-160.15051	1.04869	44.79420	146.96693	5.49316	190.16313	120.25021	3.39577	187.56636	186.91717	4.04496	207.79117	153.40891	3.54558	84.44481	148.51500	9.28843	284.59550	156.45511	1.64795 
